# xmcd
#
# Track frame offsets:
#	150
#	11232
#	24790
#	36632
#	47772
#	59842
#	69892
#	81500
#	98392
#	113082
#
# Disc length: 1684 seconds
#
# Revision: 1
# Processed by: cddbd v1.5.2PL0 Copyright (c) Steve Scherf et al.
# Submitted via: audiograbber 1.83.01
#
DISCID=7f06920a
DTITLE=Various Artist - Honky Tonk Hits
DYEAR=2004
DGENRE=Country
TTITLE0=Vern Gosdin - Set 'em up Joe
TTITLE1=Ray Price - City lights
TTITLE2=Joe Stampley - Whisky talkin'
TTITLE3=Marty Robbins - Singing the blues
TTITLE4=Johnny Paycheck - Fifteen beers
TTITLE5=Johnny Horton - Honky tonk man
TTITLE6=David Houston - A loser's cathedral
TTITLE7=George Jones - Bartender's blues
TTITLE8=Merle Haggard - 5:01 blues
TTITLE9=Mickey Gilley - Don't the girls all get prettier at closing time
EXTD=
EXTT0=
EXTT1=
EXTT2=
EXTT3=
EXTT4=
EXTT5=
EXTT6=
EXTT7=
EXTT8=
EXTT9=
PLAYORDER=
